<svg width="42" height="39" viewBox="0 0 42 39" fill="none" xmlns="http://www.w3.org/2000/svg">
<g clip-path="url(#clip0_103_7)">
<path d="M40.9512 14.515L21.7012 1.06384C21.6819 1.0503 21.6609 1.04217 21.6405 1.02971C21.6085 1.00958 21.5754 0.990958 21.5413 0.973922C21.4075 0.910124 21.2622 0.86973 21.1126 0.854756C21.0379 0.848365 20.9627 0.848184 20.888 0.854214C20.6956 0.87216 20.5109 0.933729 20.3502 1.03351C20.3333 1.04434 20.3146 1.05138 20.2977 1.0633L1.04767 14.5145C0.809459 14.6902 0.654554 14.9454 0.615947 15.2256C0.57734 15.5058 0.658083 15.789 0.840977 16.0147C1.02387 16.2405 1.29446 16.391 1.59511 16.4343C1.89577 16.4775 2.20272 16.41 2.45059 16.2462L5.47167 14.1353V32.5325C5.47167 36.7868 6.66692 38.1523 11.0828 38.1523H30.9161C35.3319 38.1523 36.9717 36.7868 36.9717 32.5325V14.4468L39.5477 16.2468C39.7577 16.3935 40.0038 16.4645 40.2483 16.4645C40.4932 16.4649 40.7321 16.3937 40.9311 16.261C41.13 16.1283 41.2789 15.9408 41.3567 15.7251C41.4345 15.5094 41.4372 15.2765 41.3644 15.0593C41.2916 14.8421 41.147 14.6517 40.9512 14.515ZM18.2006 25.6956H23.8C25.0833 25.6956 25.3056 25.7167 25.3056 26.7925V35.9873H17.1395V26.7925C17.1395 25.7167 16.9173 25.6956 18.2006 25.6956ZM34.6389 13.2373V32.5341C34.6389 35.633 34.0568 35.9873 30.9167 35.9873H26.4723V26.7925C26.4723 24.9275 25.494 24.6123 23.8 24.6123H18.2006C16.5066 24.6123 15.9728 24.9275 15.9728 26.7925V35.9873H11.0833C7.94267 35.9873 7.80559 35.633 7.80559 32.5341V13.2373C7.80559 13.0168 7.73384 12.8126 7.61192 12.6414L21 3.28576L34.713 12.8678C34.6651 12.986 34.6401 13.111 34.6389 13.2373Z" fill="black"/>
<path d="M17.857 8.77878L10.2562 14.2296C10.1121 14.3319 10.1389 14.4907 10.1389 14.6591V20.8206C10.1389 20.9642 10.2004 21.102 10.3098 21.2036C10.4192 21.3052 10.5676 21.3622 10.7223 21.3622C10.877 21.3622 11.0254 21.3052 11.1348 21.2036C11.2441 21.102 11.3056 20.9642 11.3056 20.8206V14.9262L18.6364 9.6384C18.8924 9.4564 18.8429 9.11624 18.6469 8.87899C18.6032 8.82289 18.5477 8.7756 18.4838 8.73999C18.4199 8.70438 18.3489 8.68119 18.275 8.67182C18.2012 8.66245 18.1261 8.6671 18.0542 8.68549C17.9824 8.70387 17.9153 8.73561 17.857 8.77878Z" fill="black"/>
<path d="M10.7222 22.4456C10.5675 22.4456 10.4192 22.5027 10.3098 22.6042C10.2004 22.7058 10.1389 22.8436 10.1389 22.9873V23.5289C10.1389 23.6726 10.2004 23.8104 10.3098 23.9119C10.4192 24.0135 10.5675 24.0706 10.7222 24.0706C10.877 24.0706 11.0253 24.0135 11.1347 23.9119C11.2441 23.8104 11.3056 23.6726 11.3056 23.5289V22.9873C11.3056 22.8436 11.2441 22.7058 11.1347 22.6042C11.0253 22.5027 10.877 22.4456 10.7222 22.4456Z" fill="black"/>
</g>
<defs>
<clipPath id="clip0_103_7">
<rect width="42" height="39" fill="white"/>
</clipPath>
</defs>
</svg>
